<?xml version="1.0" encoding="utf-8"?>
<!-- Generator: Adobe Illustrator 24.2.3, SVG Export Plug-In . SVG Version: 6.00 Build 0)  -->
<svg version="1.1" id="レイヤー_1" xmlns="http://www.w3.org/2000/svg" xmlns:xlink="http://www.w3.org/1999/xlink" x="0px"
	 y="0px" viewBox="0 0 461.1 86.1" style="enable-background:new 0 0 461.1 86.1;" xml:space="preserve">
<style type="text/css">
	.st0{fill:#44403F;}
	.st1{fill:#33302F;}
</style>
<g>
	<path d="M193.6,13.1c-1.8-2.2-3.9-3.2-6.5-3.2c-1.1,0-2.2,0.2-3.2,0.6c-1,0.4-1.8,1-2.5,1.7c-0.7,0.7-1.3,1.6-1.7,2.6
		c-0.4,1-0.6,2.1-0.6,3.2c0,1.2,0.2,2.2,0.6,3.2c0.4,1,1,1.8,1.7,2.6c0.7,0.7,1.6,1.3,2.5,1.7c1,0.4,2,0.6,3.1,0.6
		c2.4,0,4.6-1,6.6-3.1v9l-0.8,0.3c-1.2,0.4-2.3,0.7-3.3,0.9c-1,0.2-2,0.3-3,0.3c-2,0-4-0.4-5.8-1.1c-1.9-0.8-3.5-1.8-4.9-3.2
		c-1.4-1.4-2.6-3-3.4-4.9c-0.9-1.9-1.3-4-1.3-6.3s0.4-4.3,1.3-6.2c0.8-1.9,2-3.5,3.4-4.9c1.4-1.4,3.1-2.4,4.9-3.2
		c1.9-0.8,3.8-1.1,5.9-1.1c1.2,0,2.3,0.1,3.4,0.4c1.1,0.2,2.3,0.6,3.6,1.1V13.1z"/>
	<path d="M199.3,12.6h7.1v3.3c0.8-1.2,1.7-2.1,2.8-2.7c1.1-0.6,2.4-1,3.8-1c0.2,0,0.4,0,0.6,0c0.2,0,0.5,0,0.8,0.1V19
		c-0.9-0.5-1.9-0.7-3-0.7c-1.6,0-2.9,0.5-3.7,1.5s-1.2,2.4-1.2,4.3v8.6h-7.1V12.6z"/>
	<path d="M224.9,23.8c0,3,1.4,4.6,4.3,4.6c1.5,0,2.7-0.6,3.5-1.9h6.8c-1.4,4.6-4.8,6.9-10.3,6.9c-1.7,0-3.2-0.3-4.6-0.8
		c-1.4-0.5-2.6-1.2-3.6-2.2c-1-0.9-1.8-2.1-2.3-3.4c-0.5-1.3-0.8-2.8-0.8-4.4c0-1.7,0.3-3.2,0.8-4.5c0.5-1.3,1.3-2.5,2.2-3.4
		c1-0.9,2.1-1.7,3.5-2.2c1.4-0.5,2.9-0.8,4.6-0.8c1.7,0,3.2,0.3,4.6,0.8c1.4,0.5,2.5,1.2,3.4,2.2c0.9,1,1.6,2.1,2.1,3.5
		c0.5,1.4,0.7,3,0.7,4.7v0.7H224.9z M233.1,19.7c-0.2-1-0.7-1.8-1.4-2.4c-0.7-0.6-1.6-0.9-2.6-0.9c-1.1,0-2,0.3-2.7,0.9
		c-0.7,0.6-1.1,1.4-1.3,2.4H233.1z"/>
	<path d="M259.9,12.6h7.1v20h-7.1v-2.2c-1.5,1.9-3.5,2.8-6.1,2.8c-1.5,0-2.8-0.3-4-0.8c-1.2-0.5-2.3-1.3-3.2-2.2
		c-0.9-1-1.6-2.1-2.1-3.4c-0.5-1.3-0.8-2.7-0.8-4.2c0-1.4,0.2-2.8,0.7-4.1c0.5-1.3,1.2-2.4,2.1-3.4c0.9-1,1.9-1.7,3.2-2.3
		c1.2-0.6,2.6-0.8,4.1-0.8c2.5,0,4.6,0.9,6.2,2.6V12.6z M251,22.6c0,0.6,0.1,1.3,0.4,1.8c0.2,0.6,0.6,1,1,1.5c0.4,0.4,0.9,0.7,1.4,1
		c0.6,0.2,1.2,0.4,1.8,0.4c0.6,0,1.2-0.1,1.8-0.4c0.6-0.2,1-0.6,1.4-1c0.4-0.4,0.7-0.9,1-1.4c0.2-0.5,0.4-1.1,0.4-1.8
		c0-0.6-0.1-1.2-0.4-1.8c-0.2-0.6-0.6-1-1-1.5c-0.4-0.4-0.9-0.7-1.4-1c-0.6-0.2-1.1-0.4-1.8-0.4c-0.6,0-1.3,0.1-1.8,0.4
		c-0.6,0.2-1,0.6-1.4,1c-0.4,0.4-0.7,0.9-1,1.4C251.2,21.4,251,22,251,22.6z"/>
	<path d="M280.5,18.5v14.1h-7.1V18.5h-2.3v-5.9h2.3v-6h7.1v6h4v5.9H280.5z"/>
	<path d="M286.7,22.5c0-1.5,0.3-2.9,0.9-4.1c0.6-1.3,1.4-2.4,2.5-3.4c1.1-0.9,2.3-1.7,3.8-2.2c1.5-0.5,3.1-0.8,4.8-0.8
		c1.7,0,3.3,0.3,4.8,0.8c1.5,0.5,2.7,1.3,3.8,2.2c1.1,0.9,1.9,2.1,2.5,3.4c0.6,1.3,0.9,2.8,0.9,4.3c0,1.6-0.3,3-0.9,4.3
		c-0.6,1.3-1.4,2.4-2.5,3.4c-1.1,0.9-2.3,1.7-3.8,2.2c-1.5,0.5-3.1,0.8-4.9,0.8c-1.7,0-3.3-0.3-4.8-0.8c-1.5-0.5-2.7-1.3-3.8-2.2
		c-1.1-1-1.9-2.1-2.5-3.4C287,25.6,286.7,24.1,286.7,22.5z M294.1,22.5c0,0.7,0.1,1.3,0.4,1.9c0.2,0.6,0.6,1,1,1.5
		c0.4,0.4,0.9,0.7,1.4,1c0.6,0.2,1.1,0.4,1.8,0.4c0.6,0,1.2-0.1,1.8-0.4c0.6-0.2,1-0.6,1.4-1c0.4-0.4,0.7-0.9,1-1.5
		c0.2-0.6,0.4-1.2,0.4-1.8c0-0.6-0.1-1.2-0.4-1.8c-0.2-0.6-0.6-1-1-1.5c-0.4-0.4-0.9-0.7-1.4-1c-0.6-0.2-1.1-0.4-1.8-0.4
		c-0.6,0-1.2,0.1-1.8,0.4c-0.6,0.2-1,0.6-1.4,1c-0.4,0.4-0.7,0.9-1,1.4C294.3,21.3,294.1,21.9,294.1,22.5z"/>
	<path d="M315.5,12.6h7.1v3.3c0.8-1.2,1.7-2.1,2.8-2.7c1.1-0.6,2.4-1,3.8-1c0.2,0,0.4,0,0.6,0c0.2,0,0.5,0,0.8,0.1V19
		c-0.9-0.5-1.9-0.7-3-0.7c-1.6,0-2.9,0.5-3.7,1.5s-1.2,2.4-1.2,4.3v8.6h-7.1V12.6z"/>
	<path d="M347.6,17.8c-1.3-0.7-2.6-1-3.8-1c-0.6,0-1.2,0.1-1.6,0.4c-0.4,0.3-0.6,0.6-0.6,1.1c0,0.2,0,0.4,0.1,0.6
		c0.1,0.1,0.2,0.3,0.4,0.4c0.2,0.1,0.5,0.2,1,0.4c0.4,0.1,1,0.2,1.7,0.4c1.9,0.4,3.4,1.1,4.4,2.1c1,1,1.4,2.3,1.4,3.8
		c0,1.2-0.2,2.2-0.7,3.2c-0.5,0.9-1.1,1.7-1.9,2.4c-0.8,0.6-1.8,1.1-3,1.5c-1.2,0.4-2.5,0.5-3.9,0.5c-2.7,0-5.4-0.8-8-2.3l2.6-5
		c2,1.4,3.8,2,5.6,2c0.6,0,1.2-0.1,1.6-0.4c0.4-0.3,0.6-0.6,0.6-1.1c0-0.3,0-0.5-0.1-0.6c-0.1-0.2-0.2-0.3-0.4-0.5
		c-0.2-0.1-0.5-0.3-0.9-0.4c-0.4-0.1-0.9-0.2-1.6-0.4c-2.2-0.4-3.7-1.1-4.6-2c-0.9-0.9-1.3-2.1-1.3-3.6c0-1.1,0.2-2.1,0.6-3
		c0.4-0.9,1-1.7,1.8-2.3c0.8-0.6,1.7-1.1,2.8-1.4c1.1-0.3,2.3-0.5,3.7-0.5c2.2,0,4.4,0.4,6.4,1.3L347.6,17.8z"/>
	<path d="M187.8,51.3c-0.9-0.7-1.7-1.2-2.6-1.6c-0.9-0.3-1.7-0.5-2.5-0.5c-1,0-1.9,0.2-2.5,0.7c-0.6,0.5-1,1.1-1,1.9
		c0,0.5,0.2,1,0.5,1.3c0.3,0.4,0.8,0.7,1.3,0.9c0.5,0.3,1.1,0.5,1.8,0.7c0.7,0.2,1.3,0.4,2,0.6c2.6,0.9,4.5,2,5.7,3.5
		c1.2,1.4,1.8,3.3,1.8,5.7c0,1.6-0.3,3-0.8,4.3c-0.5,1.3-1.3,2.4-2.3,3.3c-1,0.9-2.3,1.6-3.7,2.1c-1.5,0.5-3.1,0.8-5,0.8
		c-3.9,0-7.5-1.1-10.8-3.4l3.4-6.4c1.2,1.1,2.4,1.8,3.5,2.4c1.2,0.5,2.3,0.8,3.4,0.8c1.3,0,2.3-0.3,2.9-0.9c0.6-0.6,1-1.3,1-2
		c0-0.5-0.1-0.9-0.2-1.2c-0.2-0.3-0.4-0.6-0.8-0.9c-0.4-0.3-0.9-0.5-1.5-0.8c-0.6-0.2-1.3-0.5-2.2-0.8c-1-0.3-2-0.7-3-1.1
		c-1-0.4-1.9-0.9-2.6-1.6c-0.8-0.6-1.4-1.5-1.9-2.5c-0.5-1-0.7-2.2-0.7-3.8c0-1.5,0.2-2.9,0.8-4.1c0.5-1.2,1.2-2.3,2.1-3.2
		c0.9-0.9,2-1.6,3.3-2c1.3-0.5,2.8-0.7,4.4-0.7c1.5,0,3.1,0.2,4.7,0.6c1.6,0.4,3.2,1,4.7,1.8L187.8,51.3z"/>
	<path d="M203.3,71.2l-10.1-18h8.5l5.6,10.7l5.4-10.7h8.4l-16.7,31.2h-8.2L203.3,71.2z"/>
	<path d="M224.5,53.2h7.3v2.6c1-1.2,2-2,3-2.5c1-0.4,2.2-0.6,3.6-0.6c1.5,0,2.7,0.2,3.8,0.7c1,0.5,1.9,1.1,2.7,2
		c0.6,0.7,1,1.5,1.2,2.4c0.2,0.9,0.3,1.9,0.3,3v13.2h-7.3V63.5c0-1-0.1-1.9-0.2-2.5c-0.1-0.6-0.4-1.1-0.8-1.5
		c-0.3-0.3-0.7-0.6-1.1-0.7c-0.4-0.1-0.8-0.2-1.3-0.2c-1.2,0-2.2,0.4-2.9,1.1c-0.7,0.7-1,1.8-1,3.2v11.1h-7.3V53.2z"/>
	<path d="M258,64.9c0,3.2,1.5,4.7,4.5,4.7c1.6,0,2.8-0.6,3.6-1.9h7.1c-1.4,4.8-5,7.1-10.8,7.1c-1.8,0-3.4-0.3-4.8-0.8
		c-1.5-0.5-2.7-1.3-3.8-2.3c-1-1-1.8-2.1-2.4-3.5c-0.6-1.4-0.9-2.9-0.9-4.5c0-1.7,0.3-3.3,0.8-4.7c0.5-1.4,1.3-2.6,2.3-3.6
		c1-1,2.2-1.7,3.6-2.3c1.4-0.5,3-0.8,4.8-0.8c1.8,0,3.3,0.3,4.7,0.8c1.4,0.5,2.6,1.3,3.6,2.3c1,1,1.7,2.2,2.2,3.7
		c0.5,1.4,0.8,3.1,0.8,4.9v0.8H258z M266.6,60.6c-0.2-1-0.7-1.9-1.5-2.5c-0.8-0.6-1.7-0.9-2.8-0.9c-1.1,0-2.1,0.3-2.8,0.9
		c-0.7,0.6-1.2,1.4-1.4,2.5H266.6z"/>
	<path d="M277.7,53.2h7.3v3.4c0.8-1.2,1.7-2.2,2.9-2.9c1.1-0.7,2.5-1,4-1c0.2,0,0.4,0,0.6,0c0.2,0,0.5,0,0.8,0.1v7
		c-1-0.5-2-0.7-3.2-0.7c-1.7,0-3,0.5-3.8,1.5c-0.9,1-1.3,2.5-1.3,4.4v8.9h-7.3V53.2z"/>
	<path d="M320.1,53.2v19.4c0,1.2-0.1,2.2-0.2,3.1c-0.1,0.9-0.3,1.7-0.6,2.4c-0.3,0.9-0.8,1.7-1.5,2.5c-0.7,0.8-1.5,1.4-2.5,2
		c-1,0.6-2.1,1-3.3,1.3c-1.2,0.3-2.6,0.5-4,0.5c-1.6,0-3.1-0.2-4.5-0.6c-1.4-0.4-2.5-1-3.6-1.7c-1-0.7-1.8-1.6-2.5-2.5
		c-0.6-1-1.1-2-1.3-3.1h8.3c0.5,1.4,1.7,2.1,3.5,2.1c1.5,0,2.7-0.4,3.6-1.3c0.8-0.9,1.2-2.1,1.2-3.6v-2c-0.5,0.5-1.1,0.9-1.6,1.3
		c-0.5,0.3-1,0.6-1.5,0.8c-0.5,0.2-1.1,0.4-1.6,0.5c-0.6,0.1-1.2,0.1-1.9,0.1c-1.5,0-2.9-0.3-4.1-0.8c-1.2-0.5-2.3-1.2-3.2-2.2
		c-0.9-0.9-1.6-2-2.1-3.3c-0.5-1.3-0.8-2.7-0.8-4.3c0-1.6,0.3-3.1,0.8-4.4c0.5-1.4,1.3-2.6,2.2-3.6c0.9-1,2-1.8,3.3-2.4
		c1.3-0.6,2.7-0.9,4.2-0.9c2.5,0,4.5,0.9,6.2,2.8v-2.2H320.1z M303.6,63.5c0,0.7,0.1,1.3,0.4,1.9c0.2,0.6,0.6,1.1,1,1.5
		c0.4,0.4,0.9,0.8,1.5,1c0.6,0.2,1.2,0.4,1.9,0.4c0.6,0,1.3-0.1,1.8-0.4c0.6-0.2,1.1-0.6,1.5-1c0.4-0.4,0.8-0.9,1-1.5
		c0.3-0.6,0.4-1.2,0.4-1.8c0-0.7-0.1-1.3-0.4-1.9c-0.3-0.6-0.6-1.1-1-1.5c-0.4-0.4-0.9-0.8-1.5-1c-0.6-0.2-1.2-0.4-1.8-0.4
		c-0.6,0-1.3,0.1-1.8,0.4c-0.6,0.3-1.1,0.6-1.5,1c-0.4,0.4-0.8,0.9-1,1.5C303.7,62.3,303.6,62.9,303.6,63.5z"/>
	<path d="M333.8,71.2l-10.1-18h8.5l5.6,10.7l5.4-10.7h8.4L335,84.4h-8.2L333.8,71.2z"/>
	<path d="M386.7,53.7c-1.8-2.2-4.1-3.4-6.8-3.4c-1.2,0-2.3,0.2-3.3,0.6c-1,0.4-1.9,1-2.6,1.8c-0.7,0.7-1.3,1.6-1.7,2.7
		c-0.4,1-0.6,2.1-0.6,3.3c0,1.2,0.2,2.3,0.6,3.4c0.4,1,1,1.9,1.7,2.7c0.7,0.8,1.6,1.4,2.6,1.8c1,0.4,2.1,0.6,3.2,0.6
		c2.5,0,4.8-1.1,6.9-3.2v9.4l-0.8,0.3c-1.2,0.4-2.4,0.8-3.4,1c-1.1,0.2-2.1,0.3-3.1,0.3c-2.1,0-4.1-0.4-6.1-1.2
		c-1.9-0.8-3.6-1.9-5.1-3.4c-1.5-1.4-2.7-3.2-3.6-5.2c-0.9-2-1.3-4.2-1.3-6.5s0.4-4.5,1.3-6.5c0.9-2,2.1-3.7,3.5-5.1
		c1.5-1.4,3.2-2.5,5.1-3.3c1.9-0.8,4-1.2,6.1-1.2c1.2,0,2.4,0.1,3.6,0.4c1.2,0.3,2.4,0.7,3.7,1.2V53.7z"/>
	<path d="M407.9,53.2h7.4v20.8h-7.4v-2.3c-1.6,2-3.7,3-6.4,3c-1.5,0-2.9-0.3-4.2-0.8c-1.3-0.6-2.4-1.3-3.3-2.3
		c-0.9-1-1.7-2.2-2.2-3.5c-0.5-1.4-0.8-2.8-0.8-4.4c0-1.5,0.3-2.9,0.8-4.2c0.5-1.3,1.2-2.5,2.2-3.5c0.9-1,2-1.8,3.3-2.4
		c1.3-0.6,2.7-0.9,4.2-0.9c2.6,0,4.7,0.9,6.5,2.7V53.2z M398.7,63.6c0,0.7,0.1,1.3,0.4,1.9c0.2,0.6,0.6,1.1,1,1.5
		c0.4,0.4,0.9,0.8,1.5,1c0.6,0.2,1.2,0.4,1.9,0.4c0.6,0,1.3-0.1,1.8-0.4c0.6-0.2,1.1-0.6,1.5-1c0.4-0.4,0.8-0.9,1-1.5
		c0.3-0.6,0.4-1.2,0.4-1.8s-0.1-1.3-0.4-1.8c-0.3-0.6-0.6-1.1-1-1.5c-0.4-0.4-0.9-0.8-1.5-1c-0.6-0.2-1.2-0.4-1.8-0.4
		c-0.7,0-1.3,0.1-1.9,0.4c-0.6,0.2-1.1,0.6-1.5,1c-0.4,0.4-0.8,0.9-1,1.5C398.8,62.3,398.7,62.9,398.7,63.6z"/>
	<path d="M429.9,59.4v14.7h-7.3V59.4h-2.6v-6.1h2.6v-3.1c0-1.7,0.2-3.1,0.5-4.1c0.3-0.9,0.7-1.7,1.3-2.4c0.6-0.7,1.3-1.4,2.1-1.9
		c0.8-0.5,1.7-1,2.6-1.3c0.9-0.3,1.8-0.4,2.7-0.4c0.6,0,1.2,0.1,1.7,0.2c0.5,0.1,1.1,0.3,1.6,0.6v6.4c-0.5-0.2-0.9-0.4-1.4-0.5
		c-0.4-0.1-0.9-0.2-1.3-0.2c-0.3,0-0.6,0-0.9,0.1c-0.3,0.1-0.6,0.3-0.9,0.6c-0.3,0.3-0.5,0.7-0.5,1.3c-0.1,0.6-0.1,1.3-0.1,2.3v2.6
		h5.2v6.1H429.9z"/>
	<path d="M445.6,64.9c0,3.2,1.5,4.7,4.5,4.7c1.6,0,2.8-0.6,3.6-1.9h7.1c-1.4,4.8-5,7.1-10.8,7.1c-1.8,0-3.4-0.3-4.8-0.8
		c-1.5-0.5-2.7-1.3-3.8-2.3c-1-1-1.8-2.1-2.4-3.5c-0.6-1.4-0.9-2.9-0.9-4.5c0-1.7,0.3-3.3,0.8-4.7c0.5-1.4,1.3-2.6,2.3-3.6
		c1-1,2.2-1.7,3.6-2.3c1.4-0.5,3-0.8,4.8-0.8c1.8,0,3.3,0.3,4.7,0.8c1.4,0.5,2.6,1.3,3.6,2.3c1,1,1.7,2.2,2.2,3.7
		c0.5,1.4,0.8,3.1,0.8,4.9v0.8H445.6z M454.2,60.6c-0.2-1-0.7-1.9-1.5-2.5c-0.8-0.6-1.7-0.9-2.8-0.9c-1.1,0-2.1,0.3-2.8,0.9
		c-0.7,0.6-1.2,1.4-1.4,2.5H454.2z"/>
</g>
<g>
	<g>
		<path d="M0.5,29.3C-2.7,46.5,8.7,63.2,26,66.4c5.2,1,10.3,0.6,15-0.8l-22-59.6C9.7,10,2.5,18.5,0.5,29.3z"/>
	</g>
	<g>
		<path d="M147.3,56.6c3.2-17.3-8.2-33.9-25.5-37.1c-5.2-1-10.4-0.6-15.1,0.9l22,59.6C138,75.9,145.3,67.4,147.3,56.6z"/>
	</g>
	<path class="st0" d="M98.9,29.4C98.9,29.4,98.9,29.4,98.9,29.4l-2.3-6.1c-3.8-0.2-8,1.9-11.6,4.4c-3.1,2.1-6.6,4.1-8,9.3l8.8,24.7
		c0,0,0,0,0-0.1c3.7,10.3,12.6,18.4,24.2,20.6c2.9,0.5,5.8,0.6,8.5,0.4L98.9,29.4z"/>
	<path class="st0" d="M69.8,46.7l-8-22.5c0,0,0,0,0,0.1C58,14,49.2,5.9,37.6,3.8C32.7,2.9,29,3.4,29,3.4l21.4,57.7c0,0,0,0,0,0
		l0.3,0.7c3.5-0.3,6.6-2.2,10.1-4.8C63.9,54.6,67.3,51.6,69.8,46.7z"/>
	<path class="st1" d="M75.5,62.9L75.5,62.9l-5.8-16.1c-6.2,7.4-13.5,12.2-19.2,15l2.6,7c4.3,11.5,15.8,18.6,28,17.2l13.1-1.5
		C85.4,79.9,78.8,72.1,75.5,62.9z"/>
	<path class="st1" d="M96.7,23.3l-2.2-5.9C90.2,5.8,78.5-1.3,66.3,0.2L53.8,1.7c9,4.8,15.7,12.9,18.7,22.5l0,0l4.5,12.7
		C83.2,29.9,90.8,25.7,96.7,23.3z"/>
</g>
</svg>
